<?xml version="1.0" encoding="UTF-8" standalone="no"?>
<svg width="36px" height="65px" viewBox="0 0 36 65" version="1.1" xmlns="http://www.w3.org/2000/svg" xmlns:xlink="http://www.w3.org/1999/xlink">
    <!-- Generator: Sketch 3.8.3 (29802) - http://www.bohemiancoding.com/sketch -->
    <title>Page 1</title>
    <desc>Created with Sketch.</desc>
    <defs></defs>
    <g id="Page-1" stroke="none" stroke-width="1" fill="none" fill-rule="evenodd">
        <g id="Artboard-1" transform="translate(-39.000000, -36.000000)" fill="#000000">
            <g id="Page-1" transform="translate(39.000000, 36.000000)">
                <path d="M3.738,2.68 L3.738,9.328 L3.738,23.195 L3.738,35.172 L3.738,40.699 L3.738,47.637 C3.738,49.594 3.68,51.52 4.078,53.449 C4.938,57.602 7.934,61.324 11.762,63.121 C13.816,64.086 16.047,64.59 18.32,64.523 C20.344,64.465 22.262,63.953 24.09,63.105 C27.492,61.531 30.023,58.477 31.297,55 C32.027,52.996 32.082,50.902 32.082,48.801 L32.082,37.297 L32.082,31.207 L32.082,17.469 L32.082,5.32 L32.082,2.68 C32.082,1.422 31.031,0.371 29.773,0.371 C28.516,0.371 27.465,1.422 27.465,2.68 L27.465,9.391 L27.465,23.297 L27.465,35.055 L27.465,40.758 L27.465,47.52 C27.465,48.996 27.551,50.516 27.355,51.984 C27.383,51.781 27.41,51.574 27.438,51.371 C27.293,52.387 27.027,53.371 26.633,54.316 C26.711,54.133 26.789,53.949 26.867,53.766 C26.465,54.719 25.945,55.609 25.316,56.43 C25.438,56.273 25.559,56.117 25.676,55.961 C25.047,56.77 24.32,57.496 23.512,58.125 C23.668,58.004 23.824,57.883 23.98,57.766 C23.16,58.395 22.27,58.91 21.316,59.316 C21.5,59.238 21.684,59.16 21.867,59.082 C20.922,59.473 19.934,59.742 18.922,59.887 C19.125,59.859 19.332,59.832 19.535,59.805 C18.48,59.945 17.414,59.949 16.355,59.816 C16.559,59.844 16.766,59.871 16.969,59.898 C15.93,59.758 14.922,59.488 13.953,59.09 C14.137,59.168 14.32,59.246 14.504,59.324 C13.562,58.926 12.68,58.414 11.863,57.797 C12.02,57.918 12.176,58.039 12.332,58.156 C11.5,57.512 10.754,56.77 10.109,55.934 C10.23,56.09 10.352,56.246 10.469,56.402 C9.852,55.586 9.34,54.703 8.941,53.762 C9.02,53.945 9.098,54.129 9.176,54.312 C8.777,53.344 8.508,52.336 8.367,51.297 C8.395,51.5 8.422,51.707 8.449,51.91 C8.25,50.32 8.348,48.668 8.348,47.066 L8.348,40.145 L8.348,34.801 L8.348,22.543 L8.348,8.805 L8.348,2.68 C8.348,1.422 7.297,0.371 6.039,0.371 C4.781,0.371 3.738,1.422 3.738,2.68 L3.738,2.68 Z" id="Fill-1"></path>
                <path d="M2.309,4.984 L9.547,4.984 L23.641,4.984 L33.164,4.984 L33.516,4.984 C34.773,4.984 35.824,3.934 35.824,2.676 C35.824,1.418 34.773,0.367 33.516,0.367 L26.277,0.367 L12.184,0.367 L2.66,0.367 L2.309,0.367 C1.051,0.367 0,1.418 0,2.676 C0,3.934 1.051,4.984 2.309,4.984 L2.309,4.984 Z" id="Fill-2"></path>
                <path d="M29.781,37.223 L29.781,50.359 C29.781,56.914 24.465,62.227 17.914,62.227 C14.637,62.227 11.672,60.898 9.523,58.75 C7.375,56.602 6.051,53.637 6.051,50.359 L6.051,37.664 L6.406,37.422 C6.406,37.422 10.062,32.809 16.461,36.984 C22.859,41.16 28.574,36.984 28.574,36.984 L29.781,37.223 Z" id="Fill-3"></path>
                <path d="M27.469,37.223 L27.469,48.168 C27.469,49.438 27.527,50.727 27.359,51.984 C27.387,51.781 27.414,51.574 27.441,51.371 C27.297,52.387 27.031,53.371 26.637,54.316 C26.715,54.133 26.793,53.949 26.871,53.766 C26.469,54.719 25.949,55.609 25.32,56.43 C25.441,56.273 25.562,56.117 25.68,55.961 C25.051,56.77 24.324,57.496 23.516,58.125 C23.672,58.004 23.828,57.883 23.984,57.766 C23.164,58.395 22.273,58.91 21.32,59.316 C21.504,59.238 21.688,59.16 21.871,59.082 C20.926,59.473 19.938,59.742 18.926,59.887 C19.129,59.859 19.336,59.832 19.539,59.805 C18.484,59.945 17.418,59.949 16.359,59.816 C16.562,59.844 16.77,59.871 16.973,59.898 C15.934,59.758 14.926,59.488 13.957,59.09 C14.141,59.168 14.324,59.246 14.508,59.324 C13.566,58.926 12.684,58.414 11.867,57.797 C12.023,57.918 12.18,58.039 12.336,58.156 C11.504,57.512 10.758,56.77 10.113,55.934 C10.234,56.09 10.355,56.246 10.473,56.402 C9.855,55.586 9.344,54.703 8.945,53.762 C9.023,53.945 9.102,54.129 9.18,54.312 C8.781,53.344 8.512,52.336 8.371,51.297 C8.398,51.5 8.426,51.707 8.453,51.91 C8.254,50.32 8.352,48.668 8.352,47.066 L8.352,40.145 L8.352,37.66 C7.969,38.324 7.59,38.988 7.207,39.652 C7.547,39.422 7.887,39.195 8.164,38.895 C8.387,38.656 8.633,38.438 8.895,38.238 C8.738,38.359 8.582,38.48 8.426,38.598 C8.875,38.254 9.363,37.969 9.883,37.746 C9.699,37.824 9.516,37.902 9.332,37.98 C9.883,37.746 10.461,37.59 11.055,37.512 C10.852,37.539 10.645,37.566 10.441,37.594 C11.039,37.52 11.633,37.527 12.23,37.602 C12.027,37.574 11.82,37.547 11.617,37.52 C12.414,37.629 13.18,37.855 13.918,38.168 C13.734,38.09 13.551,38.012 13.367,37.934 C14.266,38.32 15.059,38.855 15.898,39.348 C16.848,39.902 17.887,40.34 18.941,40.652 C20.824,41.211 22.754,41.227 24.68,40.938 C25.992,40.742 27.246,40.273 28.441,39.711 C28.887,39.5 29.332,39.266 29.73,38.977 C29.137,39.055 28.547,39.133 27.953,39.211 C28.355,39.293 28.758,39.371 29.16,39.453 C30.391,39.699 31.648,39.117 32,37.84 C32.316,36.695 31.621,35.246 30.387,35 C29.371,34.797 28.238,34.43 27.305,35.059 C26.785,35.406 26.219,35.691 25.645,35.938 C25.828,35.859 26.012,35.781 26.195,35.703 C25.258,36.098 24.277,36.371 23.27,36.516 C23.473,36.488 23.68,36.461 23.883,36.434 C22.93,36.559 21.973,36.562 21.02,36.434 C21.223,36.461 21.43,36.488 21.633,36.516 C20.727,36.383 19.848,36.137 18.996,35.789 C19.18,35.867 19.363,35.945 19.547,36.023 C18.613,35.625 17.793,35.07 16.918,34.566 C16.008,34.039 15.012,33.609 14,33.316 C12.387,32.848 10.641,32.812 9.016,33.227 C7.746,33.551 6.656,34.191 5.633,34.984 C5.324,35.223 5.016,35.488 4.77,35.793 C4.926,35.672 5.082,35.551 5.238,35.434 C4.621,35.855 4.035,36.277 3.82,37.055 C3.742,37.332 3.738,37.508 3.738,37.746 L3.738,38.359 L3.738,40.957 L3.738,47.879 C3.738,49.91 3.688,51.91 4.184,53.906 C5.207,58.016 8.273,61.66 12.18,63.309 C14.258,64.188 16.465,64.652 18.73,64.508 C20.742,64.379 22.641,63.844 24.441,62.941 C27.777,61.262 30.27,58.156 31.426,54.633 C32.07,52.668 32.082,50.641 32.082,48.602 L32.082,41.848 L32.082,37.223 C32.082,35.965 31.031,34.914 29.773,34.914 C28.516,34.914 27.469,35.965 27.469,37.223 L27.469,37.223 Z" id="Fill-4"></path>
                <path d="M24.434,25.203 L27.73,25.203 C28.988,25.203 30.039,24.152 30.039,22.895 C30.039,21.637 28.988,20.586 27.73,20.586 L24.434,20.586 C23.176,20.586 22.125,21.637 22.125,22.895 C22.125,24.152 23.176,25.203 24.434,25.203 L24.434,25.203 Z" id="Fill-5"></path>
                <path d="M23.992,16.414 L27.289,16.414 C28.547,16.414 29.598,15.363 29.598,14.105 C29.598,12.848 28.547,11.797 27.289,11.797 L23.992,11.797 C22.734,11.797 21.684,12.848 21.684,14.105 C21.684,15.363 22.734,16.414 23.992,16.414 L23.992,16.414 Z" id="Fill-6"></path>
            </g>
        </g>
    </g>
</svg>